<?xml version="1.0" standalone="no"?>
<!DOCTYPE svg PUBLIC "-//W3C//DTD SVG 20010904//EN"
 "http://www.w3.org/TR/2001/REC-SVG-20010904/DTD/svg10.dtd">
<svg version="1.0" xmlns="http://www.w3.org/2000/svg"
 width="3125.000000pt" height="3103.000000pt" viewBox="0 0 3125.000000 3103.000000"
 preserveAspectRatio="xMidYMid meet">

<g transform="translate(0.000000,3103.000000) scale(0.100000,-0.100000)"
fill="#000000" stroke="none">
<path d="M10566 19912 c-3 -5 1 -9 9 -9 8 0 12 4 9 9 -3 4 -7 8 -9 8 -2 0 -6
-4 -9 -8z"/>
<path d="M19615 19661 c-3 -5 -2 -12 3 -15 12 -7 47 -1 47 9 0 12 -43 16 -50
6z"/>
<path d="M19530 19595 c0 -8 9 -15 19 -15 10 0 21 7 25 15 4 11 -1 15 -19 15
-16 0 -25 -6 -25 -15z"/>
<path d="M19117 19414 c-8 -8 1 -24 14 -24 5 0 9 7 9 15 0 15 -12 20 -23 9z"/>
<path d="M19003 19345 c0 -6 6 -12 12 -12 6 0 12 6 12 12 0 6 -6 12 -12 12 -6
0 -12 -6 -12 -12z"/>
<path d="M11310 19305 c0 -14 5 -25 10 -25 6 0 10 11 10 25 0 14 -4 25 -10 25
-5 0 -10 -11 -10 -25z"/>
<path d="M17000 19155 c0 -8 7 -15 15 -15 8 0 15 7 15 15 0 8 -7 15 -15 15 -8
0 -15 -7 -15 -15z"/>
<path d="M11316 12912 c-6 -9 -8 -95 -7 -274 l1 -138 39 0 c25 0 41 -5 45 -15
8 -21 26 -19 26 3 0 13 -2 14 -9 4 -11 -19 -21 8 -21 59 0 26 -4 38 -12 37 -9
-2 -14 12 -16 40 -2 28 -8 42 -18 42 -11 0 -14 22 -15 118 -1 64 -1 120 0 125
1 9 -7 9 -13 -1z"/>
<path d="M11333 12278 c0 -49 10 -68 23 -47 5 8 3 9 -7 4 -12 -7 -12 -6 -1 7
16 20 13 85 -4 85 -8 0 -12 -18 -11 -49z"/>
<path d="M11362 12241 c3 -26 -4 -61 -10 -57 -5 3 -9 -1 -9 -9 0 -8 4 -12 9
-9 4 3 8 -33 8 -80 0 -71 3 -86 15 -86 14 0 16 18 14 123 -1 96 -4 124 -14
124 -8 0 -14 -3 -13 -6z"/>
<path d="M11403 11863 c-16 -6 -17 -63 -2 -63 5 0 7 -6 3 -12 -5 -10 -4 -10 5
-2 16 15 10 82 -6 77z"/>
<path d="M11423 11770 c-3 -11 -11 -20 -17 -20 -7 0 -13 -7 -13 -15 0 -8 6
-15 14 -15 10 0 13 -21 14 -82 1 -46 1 -90 0 -98 -1 -12 0 -12 8 1 6 9 12 42
13 73 2 37 9 60 18 66 13 8 12 10 -2 10 -14 0 -18 9 -19 38 -1 20 -1 43 0 50
3 20 -10 14 -16 -8z"/>
<path d="M11535 11202 c2 -3 0 -12 -5 -21 -9 -19 -2 -35 18 -39 9 -1 12 8 10
31 -1 20 -7 34 -15 34 -7 0 -11 -2 -8 -5z"/>
<path d="M11562 11070 c-2 -23 2 -40 8 -40 5 0 10 18 10 40 0 22 -4 40 -8 40
-4 0 -9 -18 -10 -40z"/>
<path d="M11582 10943 c0 -22 4 -33 14 -33 11 0 14 -15 14 -59 0 -35 5 -63 12
-67 7 -4 8 -3 4 4 -4 7 -2 12 3 12 6 0 11 21 11 50 0 36 -5 55 -20 70 -11 11
-17 27 -14 37 5 14 4 15 -4 4 -8 -11 -10 -11 -14 0 -3 8 -5 -1 -6 -18z"/>
<path d="M11673 10655 c0 -8 4 -12 9 -9 5 3 6 10 3 15 -9 13 -12 11 -12 -6z"/>
<path d="M11723 10455 c0 -8 4 -15 8 -15 4 0 9 7 13 15 3 9 0 15 -8 15 -7 0
-13 -7 -13 -15z"/>
<path d="M11780 10339 c0 -13 4 -18 13 -13 7 5 6 0 -3 -11 -13 -16 -13 -18 0
-13 21 7 26 58 6 58 -9 0 -16 -9 -16 -21z"/>
<path d="M11830 10199 c0 -31 4 -48 10 -44 6 4 13 -7 16 -24 4 -19 11 -28 18
-24 6 4 4 -2 -4 -12 -13 -16 -13 -18 0 -13 17 5 24 108 8 108 -6 0 -7 -7 -4
-16 3 -8 2 -12 -4 -9 -6 3 -10 24 -10 46 0 28 -4 39 -15 39 -11 0 -15 -12 -15
-51z"/>
<path d="M11892 10053 c-1 -15 4 -23 13 -23 10 0 15 -10 15 -30 0 -16 5 -30
10 -30 13 0 13 57 0 62 -6 2 -12 13 -12 24 -3 28 -23 26 -26 -3z"/>
<path d="M11976 9838 c3 -5 10 -6 15 -3 13 9 11 12 -6 12 -8 0 -12 -4 -9 -9z"/>
<path d="M12000 9774 c0 -20 4 -25 18 -22 15 4 17 0 14 -27 -3 -23 1 -34 12
-38 13 -5 16 2 16 43 0 38 -4 50 -15 50 -8 0 -15 5 -15 10 0 6 -7 10 -15 10
-10 0 -15 -10 -15 -26z"/>
<path d="M12140 9515 c0 -8 7 -15 15 -15 8 0 15 7 15 15 0 8 -7 15 -15 15 -8
0 -15 -7 -15 -15z"/>
<path d="M12170 9455 c0 -8 2 -15 4 -15 2 0 6 7 10 15 3 8 1 15 -4 15 -6 0
-10 -7 -10 -15z"/>
<path d="M12280 9234 c0 -9 5 -14 12 -12 18 6 21 28 4 28 -9 0 -16 -7 -16 -16z"/>
<path d="M18280 9207 c0 -36 -4 -47 -16 -47 -12 0 -14 -10 -12 -52 3 -49 5
-53 31 -56 l27 -3 0 83 c-1 57 -5 89 -15 102 -14 18 -15 16 -15 -27z"/>
<path d="M12312 9179 c-1 -24 2 -38 8 -34 6 3 10 -3 10 -13 0 -11 7 -22 15
-26 12 -4 15 4 15 39 0 25 -5 45 -11 45 -5 0 -7 -5 -3 -12 4 -7 3 -8 -4 -4 -7
4 -12 16 -12 27 0 38 -17 18 -18 -22z"/>
<path d="M12367 9093 c-13 -12 -7 -43 8 -43 8 0 15 -4 15 -10 0 -5 7 -10 15
-10 9 0 15 9 15 25 0 20 -5 25 -26 25 -14 0 -23 4 -19 10 7 11 2 13 -8 3z"/>
<path d="M18250 8987 c0 -8 7 -14 15 -14 8 0 15 6 15 14 0 7 -7 13 -15 13 -8
0 -15 -6 -15 -13z"/>
<path d="M12500 8876 c0 -7 8 -16 19 -19 14 -3 17 -11 14 -31 -4 -19 -1 -26
11 -26 12 0 16 8 14 30 -1 17 -8 30 -15 30 -7 0 -13 7 -13 15 0 8 -7 15 -15
15 -8 0 -15 -6 -15 -14z"/>
<path d="M12567 8804 c-11 -11 -8 -54 3 -54 6 0 10 -6 10 -14 0 -7 8 -16 18
-18 16 -5 18 0 13 30 -3 19 -10 34 -16 33 -5 -1 -12 5 -15 14 -3 9 -9 13 -13
9z"/>
<path d="M12622 8698 c-17 -17 -15 -38 3 -38 8 0 15 -4 15 -10 0 -5 7 -10 15
-10 18 0 20 26 3 36 -7 5 -9 2 -4 -7 4 -8 1 -5 -8 5 -8 10 -13 23 -10 27 8 13
0 11 -14 -3z"/>
<path d="M18220 8620 c0 -56 3 -70 15 -70 12 0 15 14 15 70 0 56 -3 70 -15 70
-12 0 -15 -14 -15 -70z"/>
<path d="M12857 8349 c3 -11 12 -19 19 -19 8 0 14 -7 14 -15 0 -8 7 -15 15
-15 9 0 15 -9 15 -25 0 -14 5 -25 10 -25 6 0 10 -7 10 -15 0 -8 7 -15 15 -15
8 0 15 -7 15 -15 0 -8 7 -15 15 -15 8 0 15 -7 15 -16 0 -11 6 -15 19 -11 14 3
18 1 14 -9 -3 -8 1 -14 11 -14 9 0 16 -7 16 -16 0 -9 6 -14 13 -11 10 4 12 -5
10 -31 -2 -33 -1 -34 13 -16 9 10 13 14 9 7 -3 -7 3 -21 15 -33 11 -11 20 -24
20 -30 0 -5 7 -10 15 -10 8 0 15 -7 15 -15 0 -8 5 -15 10 -15 6 0 10 -7 10
-15 0 -8 7 -15 15 -15 8 0 15 -7 15 -15 0 -8 7 -15 15 -15 8 0 15 -4 15 -10 0
-5 7 -10 15 -10 8 0 15 -7 15 -15 0 -8 7 -15 15 -15 8 0 15 -7 15 -15 0 -8 5
-15 10 -15 6 0 10 -7 10 -15 0 -8 7 -15 15 -15 8 0 15 -4 15 -10 0 -5 7 -10
15 -10 8 0 15 -7 15 -15 0 -9 9 -15 25 -15 14 0 25 5 25 11 0 14 -25 39 -39
39 -6 0 -11 7 -11 15 0 8 -7 15 -15 15 -8 0 -15 7 -15 15 0 8 -7 15 -15 15 -8
0 -15 5 -15 11 0 14 -25 39 -39 39 -6 0 -11 7 -11 15 0 8 -7 15 -15 15 -8 0
-15 7 -15 15 0 8 -7 15 -15 15 -8 0 -15 7 -15 15 0 8 -7 15 -15 15 -8 0 -15 6
-15 13 0 7 -9 19 -20 27 -22 16 -28 36 -7 24 7 -4 9 -3 4 2 -5 5 -14 9 -20 9
-7 0 -11 8 -11 18 2 15 -1 16 -14 5 -10 -9 -13 -9 -9 -1 4 6 3 14 -3 18 -6 4
-8 11 -5 16 4 5 1 9 -5 9 -14 0 -40 25 -40 39 0 6 -7 11 -15 11 -8 0 -15 7
-15 15 0 8 -7 15 -15 15 -8 0 -15 7 -15 15 0 8 -7 15 -15 15 -8 0 -15 7 -15
15 0 8 -5 15 -11 15 -14 0 -39 25 -39 39 0 6 -7 11 -15 11 -8 0 -15 6 -15 14
0 7 -8 16 -19 19 -14 3 -17 0 -14 -14z"/>
<path d="M18143 8046 c-1 -55 2 -73 12 -73 8 0 14 3 13 6 -2 19 3 31 13 29 6
-2 12 7 14 20 1 12 -3 22 -8 22 -5 0 -7 -9 -4 -20 3 -11 2 -18 -3 -15 -4 3
-10 16 -12 30 -3 14 -1 22 4 18 6 -3 5 4 -1 14 -6 11 -8 23 -5 25 3 3 -1 8 -8
11 -11 4 -14 -12 -15 -67z"/>
</g>
</svg>
